<svg width="135" height="16" viewBox="0 0 135 16" fill="none" xmlns="http://www.w3.org/2000/svg">
<path d="M4.70703 7.93945V7.86133L0.410156 0.908203H4.58984L7.17773 5.67383H7.24609L9.85352 0.908203H13.8281L9.3457 7.90039V7.96875L13.7891 15H9.76562L7.03125 10.4297H6.95312L4.20898 15H0.400391L4.70703 7.93945ZM18.9453 7.93945V7.86133L14.6484 0.908203H18.8281L21.416 5.67383H21.4844L24.0918 0.908203H28.0664L23.584 7.90039V7.96875L28.0273 15H24.0039L21.2695 10.4297H21.1914L18.4473 15H14.6387L18.9453 7.93945ZM33.1836 7.93945V7.86133L28.8867 0.908203H33.0664L35.6543 5.67383H35.7227L38.3301 0.908203H42.3047L37.8223 7.90039V7.96875L42.2656 15H38.2422L35.5078 10.4297H35.4297L32.6855 15H28.877L33.1836 7.93945Z" fill="#E4285B"/>
<path d="M43.7695 15V0.908203H50.3613C51.748 0.908203 52.8385 1.2207 53.6328 1.8457C54.4206 2.47721 54.8145 3.33659 54.8145 4.42383C54.8145 5.20508 54.5508 5.88542 54.0234 6.46484C53.4961 7.03125 52.8385 7.36979 52.0508 7.48047V7.55859C53.0143 7.60417 53.8216 7.94271 54.4727 8.57422C55.1367 9.21875 55.4688 10.0065 55.4688 10.9375C55.4688 12.1745 55.0228 13.1608 54.1309 13.8965C53.2389 14.6322 52.041 15 50.5371 15H43.7695ZM47.3535 6.65039H49.2383C49.8893 6.65039 50.4004 6.50391 50.7715 6.21094C51.1361 5.92448 51.3184 5.52734 51.3184 5.01953C51.3184 4.52474 51.1523 4.14062 50.8203 3.86719C50.4818 3.58724 50.013 3.44727 49.4141 3.44727H47.3535V6.65039ZM49.5215 12.4609C50.2637 12.4609 50.8333 12.3047 51.2305 11.9922C51.6276 11.6732 51.8262 11.2174 51.8262 10.625C51.8262 10.0521 51.6243 9.60938 51.2207 9.29688C50.8171 8.98438 50.2441 8.82812 49.502 8.82812H47.3535V12.4609H49.5215ZM65.3516 11.9043H60.7422L59.8438 15H56.1914L60.9277 0.908203H65.3125L70.0488 15H66.2402L65.3516 11.9043ZM61.4355 9.32617H64.6484L63.0859 3.89648H63.0078L61.4355 9.32617ZM71.4062 15V0.908203H77.998C79.3848 0.908203 80.4753 1.2207 81.2695 1.8457C82.0573 2.47721 82.4512 3.33659 82.4512 4.42383C82.4512 5.20508 82.1875 5.88542 81.6602 6.46484C81.1328 7.03125 80.4753 7.36979 79.6875 7.48047V7.55859C80.651 7.60417 81.4583 7.94271 82.1094 8.57422C82.7734 9.21875 83.1055 10.0065 83.1055 10.9375C83.1055 12.1745 82.6595 13.1608 81.7676 13.8965C80.8757 14.6322 79.6777 15 78.1738 15H71.4062ZM74.9902 6.65039H76.875C77.526 6.65039 78.0371 6.50391 78.4082 6.21094C78.7728 5.92448 78.9551 5.52734 78.9551 5.01953C78.9551 4.52474 78.7891 4.14062 78.457 3.86719C78.1185 3.58724 77.6497 3.44727 77.0508 3.44727H74.9902V6.65039ZM77.1582 12.4609C77.9004 12.4609 78.4701 12.3047 78.8672 11.9922C79.2643 11.6732 79.4629 11.2174 79.4629 10.625C79.4629 10.0521 79.2611 9.60938 78.8574 9.29688C78.4538 8.98438 77.8809 8.82812 77.1387 8.82812H74.9902V12.4609H77.1582ZM94.2676 15H84.6094V0.908203H94.2676V3.79883H88.1934V6.60156H93.9062V9.23828H88.1934V12.1094H94.2676V15ZM99.248 10.918C99.3132 11.3932 99.5866 11.7839 100.068 12.0898C100.544 12.3828 101.117 12.5293 101.787 12.5293C102.477 12.5293 103.037 12.3893 103.467 12.1094C103.883 11.8359 104.092 11.4844 104.092 11.0547C104.092 10.6641 103.926 10.3581 103.594 10.1367C103.268 9.92188 102.702 9.72982 101.895 9.56055L100.049 9.19922C97.4251 8.69792 96.1133 7.35026 96.1133 5.15625C96.1133 3.80208 96.6406 2.71159 97.6953 1.88477C98.7305 1.07096 100.072 0.664062 101.719 0.664062C103.464 0.664062 104.84 1.05794 105.85 1.8457C106.839 2.62695 107.344 3.6849 107.363 5.01953H104.062C104.03 4.51172 103.799 4.11133 103.369 3.81836C102.952 3.52539 102.415 3.37891 101.758 3.37891C101.133 3.37891 100.632 3.50911 100.254 3.76953C99.8698 4.02995 99.6777 4.375 99.6777 4.80469C99.6777 5.18229 99.8438 5.48828 100.176 5.72266C100.501 5.95052 101.035 6.13932 101.777 6.28906L103.604 6.63086C104.99 6.89779 106.009 7.35677 106.66 8.00781C107.311 8.65885 107.637 9.54102 107.637 10.6543C107.637 12.054 107.1 13.1706 106.025 14.0039C104.951 14.8307 103.506 15.2441 101.689 15.2441C99.8861 15.2441 98.4668 14.8633 97.4316 14.1016C96.39 13.3398 95.8594 12.2786 95.8398 10.918H99.248ZM115.889 12.7148H108.926V9.7168C110.104 7.43815 111.895 4.50195 114.297 0.908203H119.277V9.92188H121.035V12.7148H119.277V15H115.889V12.7148ZM111.963 10.0488H115.986V3.33008H115.918C114.167 5.94076 112.848 8.14779 111.963 9.95117V10.0488ZM126.318 9.61914C126.318 10.446 126.533 11.0872 126.963 11.543C127.399 12.0052 128.014 12.2363 128.809 12.2363C129.603 12.2363 130.215 12.0052 130.645 11.543C131.074 11.0872 131.289 10.446 131.289 9.61914V0.908203H134.873V10C134.873 11.582 134.32 12.8516 133.213 13.8086C132.106 14.7656 130.638 15.2441 128.809 15.2441C126.973 15.2441 125.501 14.7656 124.395 13.8086C123.288 12.8516 122.734 11.582 122.734 10V0.908203H126.318V9.61914Z" fill="white"/>
</svg>
